<?xml version="1.0" standalone="no"?>
<!DOCTYPE svg PUBLIC "-//W3C//DTD SVG 20010904//EN"
 "http://www.w3.org/TR/2001/REC-SVG-20010904/DTD/svg10.dtd">
<svg version="1.0" xmlns="http://www.w3.org/2000/svg"
 width="1024.000000pt" height="1024.000000pt" viewBox="0 0 1024.000000 1024.000000"
 preserveAspectRatio="xMidYMid meet">
<metadata>
Created by potrace 1.11, written by Peter Selinger 2001-2013
</metadata>
<g transform="translate(0.000000,1024.000000) scale(0.100000,-0.100000)"
fill="#000000" stroke="none">
<path d="M4815 10189 c-482 -29 -999 -139 -1460 -311 -1749 -653 -3009 -2220
-3264 -4058 -38 -278 -45 -391 -45 -715 0 -334 7 -444 50 -745 195 -1365 960
-2610 2099 -3415 1187 -839 2671 -1130 4088 -804 1615 372 2963 1527 3579
3064 391 976 471 2062 227 3085 -306 1285 -1112 2411 -2237 3123 -898 569
-1960 840 -3037 776z m1035 -1063 c494 -76 898 -277 1211 -603 318 -332 494
-727 554 -1248 17 -150 20 -475 5 -626 -67 -670 -342 -1247 -828 -1737 -573
-576 -1483 -1007 -2880 -1362 l-43 -11 32 -57 c94 -168 240 -336 387 -447 164
-123 365 -209 598 -256 137 -27 482 -38 659 -19 321 33 619 133 845 285 280
189 615 525 1011 1017 171 212 235 273 344 324 283 135 539 8 644 -321 40
-125 54 -232 54 -425 -1 -426 -100 -765 -321 -1095 -326 -487 -791 -893 -1317
-1150 -495 -242 -1018 -358 -1680 -372 -1102 -23 -1948 265 -2579 876 -702
682 -1049 1671 -1023 2911 8 379 42 678 118 1022 155 711 488 1408 927 1948
47 58 156 176 241 264 625 637 1352 996 2206 1090 186 21 678 16 835 -8z"/>
<path d="M4950 7445 c-422 -72 -789 -430 -1056 -1032 -170 -384 -264 -828
-281 -1330 -4 -128 -3 -193 4 -193 27 0 387 105 532 155 514 177 924 416 1211
704 169 169 266 309 343 491 74 175 103 344 94 545 -7 152 -23 218 -80 335
-80 164 -240 287 -422 325 -84 18 -242 18 -345 0z"/>
</g>
</svg>
